<svg width="170" height="96" viewBox="0 0 170 96" fill="none" xmlns="http://www.w3.org/2000/svg">
<path d="M83.9922 9.57031C83.9922 9.33594 84.1484 9.10156 84.4609 8.86719C84.7734 8.63281 85.125 8.39844 85.5156 8.16406C85.9844 7.92969 86.4531 7.77344 86.9219 7.69531C87.3906 7.53906 87.7813 7.5 88.0938 7.57813C88.4063 7.65625 88.7969 7.89063 89.2656 8.28125C89.7344 8.59375 90.1641 8.94531 90.5547 9.33594C91.0234 9.72656 91.4141 10.1563 91.7266 10.625C92.0391 11.0156 92.1953 11.3281 92.1953 11.5625V76.6016C93.1328 75.4297 94.6953 74.6484 96.8828 74.2578C99.1484 73.7891 101.805 73.4766 104.852 73.3203C107.898 73.1641 111.219 73.0859 114.813 73.0859C118.484 73.0078 122.195 72.8125 125.945 72.5C129.695 72.1094 133.367 71.4844 136.961 70.625C140.633 69.6875 143.992 68.3203 147.039 66.5234C149.93 64.8047 151.883 63.9453 152.898 63.9453C153.992 63.8672 154.383 64.3359 154.07 65.3516C153.758 66.3672 152.82 67.6953 151.258 69.3359C149.695 70.9766 147.742 72.6172 145.398 74.2578C143.133 75.8984 140.555 77.3438 137.664 78.5938C134.773 79.8438 131.805 80.5469 128.758 80.7031C127.977 80.7813 126.805 80.8203 125.242 80.8203C123.68 80.8203 121.883 80.8594 119.852 80.9375C117.82 80.9375 115.711 80.9375 113.523 80.9375C111.336 80.8594 109.227 80.8203 107.195 80.8203H101.805C100.242 80.8203 99.0703 80.7813 98.2891 80.7031C97.3516 81.4063 96.375 82.6172 95.3594 84.3359C94.4219 85.9766 93.3672 87.5781 92.1953 89.1406C91.1016 90.7031 89.8906 91.9531 88.5625 92.8906C87.2344 93.8281 85.7109 93.8672 83.9922 93.0078V9.57031Z" fill="black"/>
<path d="M77.7344 93.3182C77.8125 91.9119 77.9297 89.8025 78.0859 86.99C78.1641 84.0994 78.2813 80.8572 78.4375 77.2635C78.5156 73.5916 78.6328 69.7635 78.7891 65.7791C78.9453 61.7947 79.1016 58.0057 79.2578 54.4119C79.3359 50.8182 79.4141 47.615 79.4922 44.8025C79.5703 41.9119 79.6094 39.7635 79.6094 38.3572C79.6094 37.8885 79.6484 37.1072 79.7266 36.0135C79.7266 34.8416 79.7266 33.6307 79.7266 32.3807C79.7266 31.0525 79.7266 29.8025 79.7266 28.6307C79.6484 27.4588 79.6094 26.6385 79.6094 26.1697C80.5469 26.6385 81.6797 27.4588 83.0078 28.6307C84.2578 29.8025 85.625 31.0916 87.1094 32.4979C88.5938 33.826 90.1172 35.076 91.6797 36.2479C93.1641 37.3416 94.5703 38.0447 95.8984 38.3572C97.6953 37.2635 98.5156 35.9354 98.3594 34.3729C98.2031 32.7322 97.3438 31.0135 95.7813 29.2166C94.1406 27.3416 91.9922 25.4275 89.3359 23.4744C86.6016 21.5213 83.6328 19.6463 80.4297 17.8494C77.1484 16.0526 73.7891 14.4119 70.3516 12.9276C66.9141 11.4432 63.6719 10.2322 60.625 9.29474C57.5 8.27911 54.7656 7.65411 52.4219 7.41974C50 7.10724 48.2031 7.26349 47.0313 7.88849C44.8438 10.1541 43.7891 12.9666 43.8672 16.326C43.9453 19.6854 44.6875 23.2791 46.0938 27.1072C47.5 30.9354 49.3359 34.9197 51.6016 39.0604C53.8672 43.201 56.0547 47.2244 58.1641 51.1307C60.2734 54.9588 62.0703 58.5916 63.5547 62.0291C65.0391 65.3885 65.7422 68.2791 65.6641 70.701C65.5859 73.1229 64.4531 74.9197 62.2656 76.0916C60.0781 77.2635 56.3672 77.5369 51.1328 76.9119C48.4766 76.2869 45.7031 75.3104 42.8125 73.9822C39.9219 72.576 37.1094 71.0525 34.375 69.4119C31.6406 67.6932 29.1016 65.8963 26.7578 64.0213C24.3359 62.1463 22.3047 60.3885 20.6641 58.7479C17.9297 59.451 16.4063 60.4666 16.0938 61.7947C15.7813 63.1229 16.3281 64.6072 17.7344 66.2479C19.0625 67.8885 21.0938 69.6072 23.8281 71.4041C26.5625 73.201 29.6484 74.9588 33.0859 76.6775C36.5234 78.3182 40.1172 79.8025 43.8672 81.1307C47.5391 82.4588 51.0938 83.4744 54.5313 84.1775C57.8906 84.8807 60.9375 85.1932 63.6719 85.115C66.3281 85.0369 68.2813 84.3729 69.5313 83.1229C69.5313 83.5916 69.5703 84.4119 69.6484 85.5838C69.7266 86.7557 69.8828 88.0057 70.1172 89.3338C70.3516 90.5838 70.7422 91.7947 71.2891 92.9666C71.8359 94.0604 72.6172 94.8416 73.6328 95.3104C74.4922 95.701 75.3125 95.6229 76.0938 95.076C76.7969 94.5291 77.3438 93.9432 77.7344 93.3182ZM71.5234 67.5369L49.9609 19.3729C50.5078 17.576 51.4453 16.326 52.7734 15.6229C54.0234 14.8416 55.4688 14.4901 57.1094 14.5682C58.75 14.5682 60.4297 14.9197 62.1484 15.6229C63.8672 16.326 65.4688 17.1854 66.9531 18.201C68.3594 19.1385 69.5313 20.1932 70.4688 21.3651C71.4063 22.4588 71.875 23.4744 71.875 24.4119L71.5234 67.5369Z" fill="black"/>
</svg>
