<svg width="170" height="96" viewBox="0 0 170 96" fill="none" xmlns="http://www.w3.org/2000/svg">
<path d="M83.9922 9.57031C83.9922 9.33594 84.1484 9.10156 84.4609 8.86719C84.7734 8.63281 85.125 8.39844 85.5156 8.16406C85.9844 7.92969 86.4531 7.77344 86.9219 7.69531C87.3906 7.53906 87.7813 7.5 88.0938 7.57813C88.4063 7.65625 88.7969 7.89063 89.2656 8.28125C89.7344 8.59375 90.1641 8.94531 90.5547 9.33594C91.0234 9.72656 91.4141 10.1563 91.7266 10.625C92.0391 11.0156 92.1953 11.3281 92.1953 11.5625V76.6016C93.1328 75.4297 94.6953 74.6484 96.8828 74.2578C99.1484 73.7891 101.805 73.4766 104.852 73.3203C107.898 73.1641 111.219 73.0859 114.813 73.0859C118.484 73.0078 122.195 72.8125 125.945 72.5C129.695 72.1094 133.367 71.4844 136.961 70.625C140.633 69.6875 143.992 68.3203 147.039 66.5234C149.93 64.8047 151.883 63.9453 152.898 63.9453C153.992 63.8672 154.383 64.3359 154.07 65.3516C153.758 66.3672 152.82 67.6953 151.258 69.3359C149.695 70.9766 147.742 72.6172 145.398 74.2578C143.133 75.8984 140.555 77.3438 137.664 78.5938C134.773 79.8438 131.805 80.5469 128.758 80.7031C127.977 80.7813 126.805 80.8203 125.242 80.8203C123.68 80.8203 121.883 80.8594 119.852 80.9375C117.82 80.9375 115.711 80.9375 113.523 80.9375C111.336 80.8594 109.227 80.8203 107.195 80.8203H101.805C100.242 80.8203 99.0703 80.7813 98.2891 80.7031C97.3516 81.4063 96.375 82.6172 95.3594 84.3359C94.4219 85.9766 93.3672 87.5781 92.1953 89.1406C91.1016 90.7031 89.8906 91.9531 88.5625 92.8906C87.2344 93.8281 85.7109 93.8672 83.9922 93.0078V9.57031Z" fill="white"/>
<path d="M77.7344 93.2837C77.8125 91.8774 77.9297 89.768 78.0859 86.9555C78.1641 84.0649 78.2813 80.8227 78.4375 77.229C78.5156 73.5571 78.6328 69.729 78.7891 65.7446C78.9453 61.7602 79.1016 57.9712 79.2578 54.3774C79.3359 50.7837 79.4141 47.5805 79.4922 44.768C79.5703 41.8774 79.6094 39.729 79.6094 38.3227C79.6094 37.854 79.6484 37.0727 79.7266 35.979C79.7266 34.8071 79.7266 33.5962 79.7266 32.3462C79.7266 31.018 79.7266 29.768 79.7266 28.5962C79.6484 27.4243 79.6094 26.604 79.6094 26.1352C80.5469 26.604 81.6797 27.4243 83.0078 28.5962C84.2578 29.768 85.625 31.0571 87.1094 32.4634C88.5938 33.7915 90.1172 35.0415 91.6797 36.2134C93.1641 37.3071 94.5703 38.0102 95.8984 38.3227C97.6953 37.229 98.5156 35.9009 98.3594 34.3384C98.2031 32.6977 97.3438 30.979 95.7813 29.1821C94.1406 27.3071 91.9922 25.393 89.3359 23.4399C86.6016 21.4868 83.6328 19.6118 80.4297 17.8149C77.1484 16.0181 73.7891 14.3774 70.3516 12.8931C66.9141 11.4087 63.6719 10.1977 60.625 9.26024C57.5 8.24461 54.7656 7.61961 52.4219 7.38524C50 7.07274 48.2031 7.22899 47.0313 7.85399C44.8438 10.1196 43.7891 12.9321 43.8672 16.2915C43.9453 19.6509 44.6875 23.2446 46.0938 27.0727C47.5 30.9009 49.3359 34.8852 51.6016 39.0259C53.8672 43.1665 56.0547 47.1899 58.1641 51.0962C60.2734 54.9243 62.0703 58.5571 63.5547 61.9946C65.0391 65.354 65.7422 68.2446 65.6641 70.6665C65.5859 73.0884 64.4531 74.8852 62.2656 76.0571C60.0781 77.229 56.3672 77.5024 51.1328 76.8774C48.4766 76.2524 45.7031 75.2759 42.8125 73.9477C39.9219 72.5415 37.1094 71.018 34.375 69.3774C31.6406 67.6587 29.1016 65.8618 26.7578 63.9868C24.3359 62.1118 22.3047 60.354 20.6641 58.7134C17.9297 59.4165 16.4063 60.4321 16.0938 61.7602C15.7813 63.0884 16.3281 64.5727 17.7344 66.2134C19.0625 67.854 21.0938 69.5727 23.8281 71.3696C26.5625 73.1665 29.6484 74.9243 33.0859 76.643C36.5234 78.2837 40.1172 79.768 43.8672 81.0962C47.5391 82.4243 51.0938 83.4399 54.5313 84.143C57.8906 84.8462 60.9375 85.1587 63.6719 85.0805C66.3281 85.0024 68.2813 84.3384 69.5313 83.0884C69.5313 83.5571 69.5703 84.3774 69.6484 85.5493C69.7266 86.7212 69.8828 87.9712 70.1172 89.2993C70.3516 90.5493 70.7422 91.7602 71.2891 92.9321C71.8359 94.0259 72.6172 94.8071 73.6328 95.2759C74.4922 95.6665 75.3125 95.5884 76.0938 95.0415C76.7969 94.4946 77.3438 93.9087 77.7344 93.2837ZM71.5234 67.5024L49.9609 19.3384C50.5078 17.5415 51.4453 16.2915 52.7734 15.5884C54.0234 14.8071 55.4688 14.4556 57.1094 14.5337C58.75 14.5337 60.4297 14.8852 62.1484 15.5884C63.8672 16.2915 65.4688 17.1509 66.9531 18.1665C68.3594 19.104 69.5313 20.1587 70.4688 21.3306C71.4063 22.4243 71.875 23.4399 71.875 24.3774L71.5234 67.5024Z" fill="white"/>
</svg>
